{"title":"Romans (2013) Malayalam Movie SCREENER MP4 - Exclusive","uid":8226099,"size":531428635,"categoryP":"video","categoryS":"movies","magnet":"?xt=urn:btih:753d773683b3bad09c0f481ca99b3c841334b531&amp;dn=Romans+%282013%29+Malayalam+Movie+SCREENER+MP4+-+Exclusive&amp;tr=udp%3A%2F%2Ftracker.openbittorrent.com%3A80&amp;tr=udp%3A%2F%2Fopen.demonii.com%3A1337&amp;tr=udp%3A%2F%2Ftracker.coppersurfer.tk%3A6969&amp;tr=udp%3A%2F%2Fexodus.desync.com%3A6969","seeders":1,"leechers":1,"uploader":"tykoon123","files":-1,"time":1362601342,"description":" &lt;a href=&quot;http://imgr.us/images/tx3nlk6kex20gz611ntl.jpg&quot; rel=&quot;nofollow&quot; target=&quot;_NEW&quot;&gt;http://imgr.us/images/tx3nlk6kex20gz611ntl.jpg&lt;/a&gt;\n\nInfo:\n\n\nFormat : MPEG-4\nFormat profile : Base Media / Version 2\nCodec ID : mp42\nFile size : 507 MiB\nDuration : 2h 19mn\nOverall bit rate : 507 Kbps\nEncoded date : UTC 2013-03-05 18:25:07\nTagged date : UTC 2013-03-05 18:44:59\nWriting application : HandBrake 0.9.8 2012071700\n\n\n\nVideo\nID : 1\nFormat : AVC\nFormat/Info : Advanced Video Codec\nFormat profile : &lt;a class=&quot;__cf_email__&quot; href=&quot;/cdn-cgi/l/email-protection&quot; data-cfemail=&quot;0a476b63644a4638243b&quot;&gt;[email&amp;#160;protected]&lt;/a&gt;&lt;script cf-hash='f9e31' type=&quot;text/javascript&quot;&gt;\n/* &lt;![CDATA[ */!function(){try{var t=&quot;currentScript&quot;in document?document.currentScript:function(){for(var t=document.getElementsByTagName(&quot;script&quot;),e=t.length;e--;)if(t[e].getAttribute(&quot;cf-hash&quot;))return t[e]}();if(t&amp;&amp;t.previousSibling){var e,r,n,i,c=t.previousSibling,a=c.getAttribute(&quot;data-cfemail&quot;);if(a){for(e=&quot;&quot;,r=parseInt(a.substr(0,2),16),n=2;a.length-n;n+=2)i=parseInt(a.substr(n,2),16)^r,e+=String.fromCharCode(i);e=document.createTextNode(e),c.parentNode.replaceChild(e,c)}}}catch(u){}}();/* ]]&gt; */&lt;/script&gt;\nFormat settings, CABAC : Yes\nFormat settings, ReFrames : 4 frames\nCodec ID : avc1\nCodec ID/Info : Advanced Video Coding\nDuration : 2h 19mn\nBit rate mode : Variable\nBit rate : 342 Kbps\nWidth : 572 pixels\nHeight : 272 pixels\nDisplay aspect ratio : 2.2:1\nFrame rate mode : Constant\nFrame rate : 29.970 fps\nColor space : YUV\nChroma subsampling : 4:2:0\nBit depth : 8 bits\nScan type : Progressive\nBits/(Pixel*Frame) : 0.073\nStream size : 342 MiB (67%)\nWriting library : x264 core 120\nEncoding settings : cabac=1 / ref=1 / deblock=1:0:0 / analyse=0x1:0x111 / me=hex / subme=2 / psy=1 / psy_rd=1.00:0.00 / mixed_ref=0 / me_range=16 / chroma_me=1 / trellis=0 / 8x8dct=0 / cqm=0 / deadzone=21,11 / fast_pskip=1 / chroma_qp_offset=0 / threads=6 / sliced_threads=0 / nr=0 / decimate=1 / interlaced=0 / bluray_compat=0 / constrained_intra=0 / bframes=3 / b_pyramid=2 / b_adapt=1 / b_bias=0 / direct=1 / weightb=1 / open_gop=0 / weightp=1 / keyint=300 / keyint_min=30 / scenecut=40 / intra_refresh=0 / rc_lookahead=10 / rc=crf / mbtree=1 / crf=20.0 / qcomp=0.60 / qpmin=3 / qpmax=69 / qpstep=4 / ip_ratio=1.40 / aq=1:1.00\nEncoded date : UTC 2013-03-05 18:25:07\nTagged date : UTC 2013-03-05 18:44:59\nMaterial_Duration : 8393318\nMaterial_StreamSize : 358588770\nMaterial_FrameCount : 251548\nColor primaries : BT.601-6 525, BT.1358 525, BT.1700 NTSC, SMPTE 170M\nTransfer characteristics : BT.709-5, BT.1361\nMatrix coefficients : BT.601-6 525, BT.1358 525, BT.1700 NTSC, SMPTE 170M\n\n\n\nAudio\nID : 2\nFormat : AAC\nFormat/Info : Advanced Audio Codec\nFormat profile : LC\nCodec ID : 40\nDuration : 2h 19mn\nBit rate mode : Variable\nBit rate : 160 Kbps\nMaximum bit rate : 261 Kbps\nChannel(s) : 2 channels\nChannel positions : Front: L R\nSampling rate : 44.1 KHz\nCompression mode : Lossy\nStream size : 160 MiB (32%)\nLanguage : English\nEncoded date : UTC 2013-03-05 18:25:07\nTagged date : UTC 2013-03-05 18:44:59\nMaterial_Duration : 8393340\nMaterial_StreamSize : 167855630\n\nNote: Quality is not that good, take it or leave it..\n\nScreens: &lt;a href=&quot;\nhttp://imgr.us/images/6uox5z8u7gq34e676np2.png&quot; rel=&quot;nofollow&quot; target=&quot;_NEW&quot;&gt;\nhttp://imgr.us/images/6uox5z8u7gq34e676np2.png&lt;/a&gt; &lt;a href=&quot;\nhttp://imgr.us/images/w0ttvu7zf9l1jq3aqzto.png&quot; rel=&quot;nofollow&quot; target=&quot;_NEW&quot;&gt;\nhttp://imgr.us/images/w0ttvu7zf9l1jq3aqzto.png&lt;/a&gt; &lt;a href=&quot;\nhttp://imgr.us/images/yq7wod6nvky78wqlnz6.png&quot; rel=&quot;nofollow&quot; target=&quot;_NEW&quot;&gt;\nhttp://imgr.us/images/yq7wod6nvky78wqlnz6.png&lt;/a&gt; &lt;a href=&quot;\nhttp://imgr.us/images/1s5yg10ai09wsfyxpkc.png&quot; rel=&quot;nofollow&quot; target=&quot;_NEW&quot;&gt;\nhttp://imgr.us/images/1s5yg10ai09wsfyxpkc.png&lt;/a&gt; &lt;a href=&quot;\nhttp://imgr.us/images/0kf459xgf9twlo1qk1ml.png&quot; rel=&quot;nofollow&quot; target=&quot;_NEW&quot;&gt;\nhttp://imgr.us/images/0kf459xgf9twlo1qk1ml.png&lt;/a&gt;","torrent":{"xt":"urn:btih:753d773683b3bad09c0f481ca99b3c841334b531","amp;dn":"Romans+%282013%29+Malayalam+Movie+SCREENER+MP4+-+Exclusive","amp;tr":["udp%3A%2F%2Ftracker.openbittorrent.com%3A80","udp%3A%2F%2Fopen.demonii.com%3A1337","udp%3A%2F%2Ftracker.coppersurfer.tk%3A6969","udp%3A%2F%2Fexodus.desync.com%3A6969"],"infoHash":"753d773683b3bad09c0f481ca99b3c841334b531","infoHashBuffer":{"type":"Buffer","data":[117,61,119,54,131,179,186,208,156,15,72,28,169,155,60,132,19,52,181,49]},"announce":[],"urlList":[]}}